HIERARCHY
ROOT Hips
{
    OFFSET   0.000000   0.000000   0.000000
    CHANNELS 6 Xposition Yposition Zposition Zrotation Xrotation Yrotation
    JOINT Chest
    {
        OFFSET   0.000000   8.007230   0.000000
        CHANNELS 3 Zrotation Xrotation Yrotation
        JOINT Chest2
        {
            OFFSET   0.000000  22.077100   0.000000
            CHANNELS 3 Zrotation Xrotation Yrotation
            JOINT Neck
            {
                OFFSET   0.000000  23.255100   0.000000
                CHANNELS 3 Zrotation Xrotation Yrotation
                JOINT Head
                {
                    OFFSET   0.000000  14.370100   1.956600
                    CHANNELS 3 Zrotation Xrotation Yrotation
                    End Site
                    {
                        OFFSET   0.000000  19.566000   0.000000
                    }
                }
            }
            JOINT LeftCollar
            {
                OFFSET   3.911900  19.017000  -0.467063
                CHANNELS 3 Zrotation Xrotation Yrotation
                JOINT LeftShoulder
                {
                    OFFSET  10.383700   0.000000   0.000000
                    CHANNELS 3 Zrotation Xrotation Yrotation
                    JOINT LeftElbow
                    {
                        OFFSET  26.662100   0.001193   0.000980
                        CHANNELS 3 Zrotation Xrotation Yrotation
                        JOINT LeftWrist
                        {
                            OFFSET  28.869000  -0.000059  -0.000082
                            CHANNELS 3 Zrotation Xrotation Yrotation
                            JOINT LeftFinger0
                            {
                                OFFSET   2.044650  -2.323450   3.252850
                                CHANNELS 3 Zrotation Xrotation Yrotation
                                JOINT LeftFinger01
                                {
                                    OFFSET   3.088130   0.000000   0.000000
                                    CHANNELS 3 Zrotation Xrotation Yrotation
                                    JOINT LeftFinger02
                                    {
                                        OFFSET   2.639460   0.000000   0.000000
                                        CHANNELS 3 Zrotation Xrotation Yrotation
                                        End Site
                                        {
                                            OFFSET   2.582190   0.000000   0.000000
                                        }
                                    }
                                }
                            }
                            JOINT LeftFinger1
                            {
                                OFFSET   8.364480   0.000000   3.252850
                                CHANNELS 3 Zrotation Xrotation Yrotation
                                JOINT LeftFinger11
                                {
                                    OFFSET   4.646930   0.000000   0.000000
                                    CHANNELS 3 Zrotation Xrotation Yrotation
                                    JOINT LeftFinger12
                                    {
                                        OFFSET   2.323470   0.000000   0.000000
                                        CHANNELS 3 Zrotation Xrotation Yrotation
                                        End Site
                                        {
                                            OFFSET   2.273050   0.000000   0.000000
                                        }
                                    }
                                }
                            }
                            JOINT LeftFinger2
                            {
                                OFFSET   8.364490   0.000016   1.078090
                                CHANNELS 3 Zrotation Xrotation Yrotation
                                JOINT LeftFinger21
                                {
                                    OFFSET   5.111610   0.000000   0.000000
                                    CHANNELS 3 Zrotation Xrotation Yrotation
                                    JOINT LeftFinger22
                                    {
                                        OFFSET   2.788150   0.000016   0.000000
                                        CHANNELS 3 Zrotation Xrotation Yrotation
                                        End Site
                                        {
                                            OFFSET   2.727660   0.000000   0.000000
                                        }
                                    }
                                }
                            }
                            JOINT LeftFinger3
                            {
                                OFFSET   7.899780   0.000015  -1.078090
                                CHANNELS 3 Zrotation Xrotation Yrotation
                                JOINT LeftFinger31
                                {
                                    OFFSET   4.646930   0.000000   0.000000
                                    CHANNELS 3 Zrotation Xrotation Yrotation
                                    JOINT LeftFinger32
                                    {
                                        OFFSET   2.323470   0.000000   0.000000
                                        CHANNELS 3 Zrotation Xrotation Yrotation
                                        End Site
                                        {
                                            OFFSET   2.273050   0.000000   0.000000
                                        }
                                    }
                                }
                            }
                            JOINT LeftFinger4
                            {
                                OFFSET   7.435090   0.000000  -3.252850
                                CHANNELS 3 Zrotation Xrotation Yrotation
                                JOINT LeftFinger41
                                {
                                    OFFSET   3.717550   0.000000   0.000000
                                    CHANNELS 3 Zrotation Xrotation Yrotation
                                    JOINT LeftFinger42
                                    {
                                        OFFSET   1.858770   0.000000   0.000000
                                        CHANNELS 3 Zrotation Xrotation Yrotation
                                        End Site
                                        {
                                            OFFSET   1.818440   0.000000   0.000000
                                        }
                                    }
                                }
                            }
                        }
                    }
                }
            }
            JOINT RightCollar
            {
                OFFSET  -3.911910  19.017000  -0.467062
                CHANNELS 3 Zrotation Xrotation Yrotation
                JOINT RightShoulder
                {
                    OFFSET -10.383700   0.000014   0.000000
                    CHANNELS 3 Zrotation Xrotation Yrotation
                    JOINT RightElbow
                    {
                        OFFSET -26.662100   0.001225   0.001091
                        CHANNELS 3 Zrotation Xrotation Yrotation
                        JOINT RightWrist
                        {
                            OFFSET -28.869000  -0.000020  -0.000085
                            CHANNELS 3 Zrotation Xrotation Yrotation
                            JOINT RightFinger0
                            {
                                OFFSET  -2.044650  -2.323490   3.252850
                                CHANNELS 3 Zrotation Xrotation Yrotation
                                JOINT RightFinger01
                                {
                                    OFFSET  -3.088130   0.000000   0.000000
                                    CHANNELS 3 Zrotation Xrotation Yrotation
                                    JOINT RightFinger02
                                    {
                                        OFFSET  -2.639460   0.000000   0.000000
                                        CHANNELS 3 Zrotation Xrotation Yrotation
                                        End Site
                                        {
                                            OFFSET  -2.582190   0.000000   0.000000
                                        }
                                    }
                                }
                            }
                            JOINT RightFinger1
                            {
                                OFFSET  -8.364480   0.000000   3.252850
                                CHANNELS 3 Zrotation Xrotation Yrotation
                                JOINT RightFinger11
                                {
                                    OFFSET  -4.646930   0.000000   0.000000
                                    CHANNELS 3 Zrotation Xrotation Yrotation
                                    JOINT RightFinger12
                                    {
                                        OFFSET  -2.323470   0.000000   0.000000
                                        CHANNELS 3 Zrotation Xrotation Yrotation
                                        End Site
                                        {
                                            OFFSET  -2.273050   0.000000   0.000000
                                        }
                                    }
                                }
                            }
                            JOINT RightFinger2
                            {
                                OFFSET  -8.364480   0.000000   1.078090
                                CHANNELS 3 Zrotation Xrotation Yrotation
                                JOINT RightFinger21
                                {
                                    OFFSET  -5.111620   0.000000   0.000000
                                    CHANNELS 3 Zrotation Xrotation Yrotation
                                    JOINT RightFinger22
                                    {
                                        OFFSET  -2.788160   0.000000   0.000000
                                        CHANNELS 3 Zrotation Xrotation Yrotation
                                        End Site
                                        {
                                            OFFSET  -2.727660   0.000000   0.000000
                                        }
                                    }
                                }
                            }
                            JOINT RightFinger3
                            {
                                OFFSET  -7.899780   0.000000  -1.078090
                                CHANNELS 3 Zrotation Xrotation Yrotation
                                JOINT RightFinger31
                                {
                                    OFFSET  -4.646930   0.000000   0.000000
                                    CHANNELS 3 Zrotation Xrotation Yrotation
                                    JOINT RightFinger32
                                    {
                                        OFFSET  -2.323470   0.000000   0.000000
                                        CHANNELS 3 Zrotation Xrotation Yrotation
                                        End Site
                                        {
                                            OFFSET  -2.273050   0.000000   0.000000
                                        }
                                    }
                                }
                            }
                            JOINT RightFinger4
                            {
                                OFFSET  -7.435090   0.000000  -3.252850
                                CHANNELS 3 Zrotation Xrotation Yrotation
                                JOINT RightFinger41
                                {
                                    OFFSET  -3.717550   0.000000   0.000000
                                    CHANNELS 3 Zrotation Xrotation Yrotation
                                    JOINT RightFinger42
                                    {
                                        OFFSET  -1.858760   0.000000   0.000000
                                        CHANNELS 3 Zrotation Xrotation Yrotation
                                        End Site
                                        {
                                            OFFSET  -1.818440   0.000000   0.000000
                                        }
                                    }
                                }
                            }
                        }
                    }
                }
            }
        }
    }
    JOINT LeftHip
    {
        OFFSET   9.783030   0.000000   0.000000
        CHANNELS 3 Zrotation Xrotation Yrotation
        JOINT LeftKnee
        {
            OFFSET   0.000063 -41.789100   0.000608
            CHANNELS 3 Zrotation Xrotation Yrotation
            JOINT LeftAnkle
            {
                OFFSET   0.000048 -41.133200  -0.000184
                CHANNELS 3 Zrotation Xrotation Yrotation
                JOINT LeftToe
                {
                    OFFSET   0.000000  -6.358960  14.674500
                    CHANNELS 3 Zrotation Xrotation Yrotation
                    End Site
                    {
                        OFFSET   0.000000   0.000000   3.913200
                    }
                }
            }
        }
    }
    JOINT RightHip
    {
        OFFSET  -9.783030   0.000000   0.000000
        CHANNELS 3 Zrotation Xrotation Yrotation
        JOINT RightKnee
        {
            OFFSET   0.000071 -41.789100   0.001239
            CHANNELS 3 Zrotation Xrotation Yrotation
            JOINT RightAnkle
            {
                OFFSET   0.000037 -41.133200  -0.000166
                CHANNELS 3 Zrotation Xrotation Yrotation
                JOINT RightToe
                {
                    OFFSET   0.000000  -6.358960  14.674500
                    CHANNELS 3 Zrotation Xrotation Yrotation
                    End Site
                    {
                        OFFSET   0.000000   0.000000   3.913200
                    }
                }
            }
        }
    }
}
MOTION
Frames: 4
Frame Time:   0.016667
  0.872805  89.573800   0.240232  -2.810880  -4.310980  -5.219890   0.833765   0.889645   0.114172   1.666050   1.780860   0.215420   1.410770   1.763770  -0.045945   2.323850   3.570440  -1.878470  -0.781737  -0.544928   1.431760 -78.120900  13.863800   4.372230  -1.602200  -6.266810 -11.781700  14.721400 -12.836300   6.941900  41.603000  35.566400 -70.912200 -28.180000   0.003861   0.007653  -9.090000  -0.008689   0.005854 -28.913900   8.015890 -14.169000 -24.473200  -0.004704  -0.008879 -17.131200   0.001829  -0.005912 -28.307300   0.709112  -1.317020 -34.232200  -0.007878  -0.002856 -22.797800   0.001324  -0.002113 -27.747900   0.696527  -1.323730 -30.535600   0.003403   0.002784 -20.336700  -0.001052  -0.001002 -28.931000   0.723771  -1.309010 -43.413500   0.002272  -0.000371 -28.910400   0.002615  -0.001094   4.966120   1.508500   1.175740  73.533600   6.996350  -6.812480   0.972028 -12.711200   7.961980 -13.618400   2.680840   4.052010 -40.688400  30.087200  69.937000  22.411000  -0.001255   0.000598   6.205490   0.000937  -0.012530  27.934600   6.876180  12.721500  23.488400  -0.000676  -0.002336  16.433600  -0.005306  -0.003154  27.999800   4.487560   8.371150  34.460300  -0.004095  -0.002292  22.950600   0.001173   0.003693  27.242600   4.271000   8.227890  29.487700  -0.004158   0.005057  19.638800  -0.001386  -0.001050  34.591300   0.339870   0.493381  51.889100  -0.002667   0.000882  34.558200  -0.003558   0.002559   2.013600   6.936020   3.400390   1.101520   0.133003   9.403160  -2.182180  -3.684940   3.273860   0.000000   0.000000   0.000000   3.758590   6.129060  -5.307880  -1.419980   1.115920  -6.240040  -0.239419  -3.674210   2.542100  -0.000000   0.000000   0.000000
  0.872525  89.573800   0.249111  -2.814310  -4.311640  -5.243130   0.830235   0.913307   0.118134   1.658910   1.828230   0.222941   1.429580   1.749580  -0.045933   2.354240   3.541340  -1.877530  -0.782844  -0.551548   1.415920 -78.083000  13.916600   4.341340  -1.610960  -6.271420 -11.781800  14.734400 -12.831400   6.952750  41.583700  35.536800 -70.883400 -28.180100   0.003857   0.007669  -9.090010  -0.008687   0.005852 -28.934400   8.038980 -14.194000 -24.493700  -0.004703  -0.008873 -17.146800   0.001824  -0.005906 -28.306900   0.718495  -1.334510 -34.231600  -0.007880  -0.002854 -22.797800   0.001318  -0.002107 -27.751200   0.705830  -1.341240 -30.555200   0.003411   0.002791 -20.349800  -0.001054  -0.000997 -28.934200   0.733318  -1.326340 -43.416600   0.002273  -0.000367 -28.913700   0.002607  -0.001089   4.976210   1.497800   1.175540  73.528500   7.037930  -6.813090   0.996102 -12.725100   7.954330 -13.639900   2.678690   4.043450 -40.675000  30.113600  69.946000  22.461400  -0.001255   0.000582   6.230700   0.000936  -0.012545  27.931300   6.882460  12.736200  23.488600  -0.000677  -0.002338  16.433600  -0.005307  -0.003155  27.998200   4.492890   8.381800  34.445600  -0.004097  -0.002297  22.940800   0.001172   0.003692  27.239800   4.281310   8.249100  29.471400  -0.004159   0.005055  19.628000  -0.001386  -0.001052  34.591700   0.339824   0.493364  51.889700  -0.002665   0.000884  34.558600  -0.003558   0.002560   2.018500   6.936590   3.407080   1.096730   0.164456   9.411950  -2.184900  -3.710870   3.284410   0.000000   0.000000   0.000000   3.760990   6.156750  -5.313160  -1.419500   1.074110  -6.232620  -0.246166  -3.653870   2.564950  -0.000000   0.000000  -0.000000
  0.872244  89.573700   0.264607  -2.820460  -4.314580  -5.280430   0.823893   0.957196   0.122096   1.646100   1.916050   0.230468   1.462190   1.722890  -0.045898   2.407920   3.486830  -1.871290  -0.790294  -0.576915   1.392510 -78.022000  14.011600   4.291640  -1.624500  -6.276540 -11.781900  14.746800 -12.814000   6.967180  41.551600  35.491300 -70.839700 -28.180300   0.003853   0.007700  -9.090130  -0.008685   0.005851 -28.963300   8.062060 -14.219000 -24.521300  -0.004699  -0.008857 -17.164900   0.001819  -0.005892 -28.306400   0.727928  -1.351990 -34.230900  -0.007884  -0.002848 -22.797800   0.001302  -0.002091 -27.757200   0.715241  -1.358750 -30.589100   0.003432   0.002809 -20.372400  -0.001059  -0.000984 -28.941700   0.743177  -1.343660 -43.425600   0.002276  -0.000357 -28.921400   0.002591  -0.001076   4.994350   1.465090   1.175330  73.516500   7.120130  -6.814350   1.037660 -12.749100   7.942470 -13.670700   2.671770   4.034880 -40.649200  30.153800  69.960400  22.545900  -0.001262   0.000567   6.272950   0.000935  -0.012574  27.927000   6.891230  12.753900  23.488800  -0.000679  -0.002349  16.433800  -0.005310  -0.003156  27.995800   4.501340   8.398570  34.425100  -0.004099  -0.002309  22.927100   0.001166   0.003691  27.235500   4.296080   8.279600  29.447000  -0.004160   0.005052  19.611700  -0.001386  -0.001058  34.592200   0.339747   0.493335  51.890400  -0.002663   0.000890  34.559100  -0.003558   0.002561   2.027240   6.940870   3.421060   1.091900   0.195905   9.426780  -2.189120  -3.747990   3.295010   0.000000   0.000000   0.000000   3.763900   6.210920  -5.340980  -1.411010   0.995495  -6.198210  -0.259213  -3.616410   2.600190  -0.000000   0.000000  -0.000000
  0.874277  89.573600   0.278966  -2.826400  -4.319690  -5.306450   0.818230   0.999530   0.117691   1.634780   2.000650   0.221268   1.489990   1.696670  -0.045837   2.453930   3.433830  -1.826690  -0.804353  -0.620412   1.385590 -77.977800  14.094100   4.256180  -1.635260  -6.276920 -11.779900  14.743500 -12.780900   6.970040  41.520000  35.457100 -70.808600 -28.183600   0.003870   0.007729  -9.091760  -0.008690   0.005851 -28.973200   8.061960 -14.218000 -24.529700  -0.004690  -0.008831 -17.167900   0.001822  -0.005878 -28.306400   0.727987  -1.351960 -34.255300  -0.007888  -0.002839 -22.814100   0.001277  -0.002067 -27.763200   0.715367  -1.358710 -30.621600   0.003465   0.002837 -20.394000  -0.001071  -0.000962 -28.955600   0.743544  -1.343600 -43.446200   0.002281  -0.000339 -28.935300   0.002570  -0.001056   5.009840   1.413990   1.198330  73.500000   7.210920  -6.821640   1.074110 -12.769600   7.934380 -13.686400   2.654900   4.034900 -40.618700  30.169200  69.968100  22.607500  -0.001282   0.000593   6.303760   0.000934  -0.012601  27.925900   6.894260  12.756600  23.488900  -0.000677  -0.002374  16.433900  -0.005315  -0.003156  27.994300   4.506940   8.409340  34.419700  -0.004099  -0.002324  22.923500   0.001149   0.003690  27.233600   4.302090   8.292070  29.436300  -0.004158   0.005045  19.604500  -0.001391  -0.001064  34.589800   0.339672   0.493307  51.886900  -0.002662   0.000900  34.556700  -0.003557   0.002561   2.034950   6.960390   3.438750   1.086040   0.194475   9.437820  -2.190680  -3.761060   3.292930  -0.000000   0.000000   0.000000   3.752830   6.273020  -5.402530  -1.390150   0.909933  -6.127640  -0.272826  -3.577800   2.626880   0.000000   0.000000  -0.000000
